<svg id="info" xmlns="http://www.w3.org/2000/svg" viewBox="0 0 50 50">
  <defs>
    <style>
      .cls-1 {
        fill: #fff;
      }
    </style>
  </defs>
  <path id="Path_7" data-name="Path 7" class="cls-1" d="M25,0A25,25,0,1,0,50,25,25.028,25.028,0,0,0,25,0Zm0,48.077A23.077,23.077,0,1,1,48.077,25,23.1,23.1,0,0,1,25,48.077Z"/>
  <path id="Path_8" data-name="Path 8" class="cls-1" d="M26,37a1,1,0,0,0-1,1v2a1,1,0,0,0,2,0V38A1,1,0,0,0,26,37Z" transform="translate(-1 -1.542)"/>
  <path id="Path_9" data-name="Path 9" class="cls-1" d="M26.113,9H26a8,8,0,0,0-8,8,1,1,0,0,0,2,0,6,6,0,0,1,6.086-6A6.114,6.114,0,0,1,32,16.914a5.973,5.973,0,0,1-2.751,5.132A9.538,9.538,0,0,0,25,30.158V33a1,1,0,0,0,2,0V30.158a7.649,7.649,0,0,1,3.332-6.432A7.961,7.961,0,0,0,34,16.886,8.055,8.055,0,0,0,26.113,9Z" transform="translate(-1 -0.667)"/>
</svg>
