<svg xmlns="http://www.w3.org/2000/svg" viewBox="0 0 184.512 116.769">
  <defs>
    <style>
      .cls-1 {
        fill: #fff;
      }
    </style>
  </defs>
  <g id="fish" transform="translate(0.001 -93.989)">
    <g id="Group_5" data-name="Group 5" transform="translate(-0.001 93.989)">
      <g id="Group_4" data-name="Group 4">
        <path id="Path_13" data-name="Path 13" class="cls-1" d="M171.956,135.665c-8.063-7.2-18.882-13.388-30.471-17.438l-.022-.008-.037-.014A100.458,100.458,0,0,0,125.07,114,61.042,61.042,0,0,0,92.336,94.262a10.448,10.448,0,0,0-12.786,10.2V119.3C62,127.023,48.084,139.621,40.6,147.356c-1.114-5.623-3.584-12.732-9.037-18.185-10.383-10.382-27.1-9.951-27.8-9.927a3.893,3.893,0,0,0-3.762,3.762c-.024.706-.45,17.412,9.931,27.793a29.424,29.424,0,0,0,8.533,5.854,30.2,30.2,0,0,0-8.534,5.9C-.444,172.94-.017,189.646.007,190.352a3.893,3.893,0,0,0,3.762,3.763c.067,0,.277.008.612.008,3.2,0,17.788-.537,27.187-9.94,5.5-5.5,7.964-12.77,9.063-18.5a140.549,140.549,0,0,0,25.725,21v13.6a10.477,10.477,0,0,0,10.433,10.468,10.568,10.568,0,0,0,3.032-.447,59.052,59.052,0,0,0,19.846-10.648,65.334,65.334,0,0,0,9.449.706,97.87,97.87,0,0,0,31.616-5.314l.021-.007c24.131-8.225,43.76-25.509,43.76-38.537C184.513,150.3,180.054,142.893,171.956,135.665Zm-156.512,9.63C10.118,139.968,8.49,131.975,8,127.222c4.744.482,12.709,2.1,18.065,7.454,5.322,5.321,6.951,13.165,7.445,17.822C28.831,152.107,20.785,150.636,15.444,145.295Zm10.618,33.384C20.74,184,12.754,185.631,8,186.124c.495-4.757,2.125-12.742,7.445-18.065,5.344-5.344,13.373-6.962,18.073-7.448C33.036,165.353,31.419,173.321,26.062,178.678Zm61.275-74.221a2.676,2.676,0,0,1,1.019-2.107,2.577,2.577,0,0,1,2.218-.5,54.417,54.417,0,0,1,22.077,10.873q-1.773-.067-3.535-.067A69.676,69.676,0,0,0,87.337,116.3Zm-9.745,98.394a2.663,2.663,0,0,1-2.375-.418,2.621,2.621,0,0,1-1.076-2.143v-9.162A88.961,88.961,0,0,0,89.5,197.391,49.072,49.072,0,0,1,77.591,202.851Zm31.525-10.269a58.164,58.164,0,0,1-9.94-.88,79.484,79.484,0,0,1-26.927-10.536,134.381,134.381,0,0,1-29.507-24.658c5.539-6.2,21.555-22.656,42.161-31.023l.075-.03a64.4,64.4,0,0,1,24.138-5.02,88.2,88.2,0,0,1,13.242,1.011,91.563,91.563,0,0,1,10.047,2.118,50.868,50.868,0,0,0-13.355,33.816c0,11.3,5.006,23.485,12.884,32.2A89.144,89.144,0,0,1,109.116,192.583Zm31.171-5.631c-8.113-7.313-13.452-18.925-13.452-29.57,0-11.645,5.684-24.113,14.01-31.107,22.285,8.334,35.882,23.035,35.882,30.235C176.728,163.831,162.921,178.658,140.288,186.952Z" transform="translate(0.001 -93.989)"/>
      </g>
    </g>
    <g id="Group_7" data-name="Group 7" transform="translate(150.764 151.745)">
      <g id="Group_6" data-name="Group 6">
        <path id="Path_14" data-name="Path 14" class="cls-1" d="M422.245,254.253a3.893,3.893,0,0,0-3.893,3.893v1.744a3.893,3.893,0,1,0,7.786,0v-1.744A3.894,3.894,0,0,0,422.245,254.253Z" transform="translate(-418.352 -254.253)"/>
      </g>
    </g>
    <g id="Group_9" data-name="Group 9" transform="translate(106.832 129.273)">
      <g id="Group_8" data-name="Group 8">
        <path id="Path_15" data-name="Path 15" class="cls-1" d="M303.961,192.966a3.892,3.892,0,0,0-5.5.142c-.373.393-.742.805-1.1,1.225a3.893,3.893,0,1,0,5.954,5.016c.255-.3.52-.6.787-.88A3.892,3.892,0,0,0,303.961,192.966Z" transform="translate(-296.447 -191.896)"/>
      </g>
    </g>
    <g id="Group_11" data-name="Group 11" transform="translate(99.303 138.89)">
      <g id="Group_10" data-name="Group 10">
        <path id="Path_16" data-name="Path 16" class="cls-1" d="M290.15,257.66c-4.327-4.982-6.809-12.539-6.809-20.733a36.725,36.725,0,0,1,2.323-13.053,3.893,3.893,0,0,0-7.267-2.795,44.594,44.594,0,0,0-2.842,15.847c0,10.043,3.177,19.461,8.716,25.838a3.893,3.893,0,1,0,5.878-5.1Z" transform="translate(-275.556 -218.583)"/>
      </g>
    </g>
  </g>
</svg>
