<svg xmlns="http://www.w3.org/2000/svg" viewBox="0 0 50 50">
  <defs>
    <style>
      .cls-1 {
        fill: #fff;
      }
    </style>
  </defs>
  <path id="home" class="cls-1" d="M49.908,22.815l-7.484-6.906V4.6H33.8V7.955L25.182,0,.458,22.815a.854.854,0,0,0-.045,1.211.868.868,0,0,0,1.219.045l2.861-2.64V50h41.38V21.43l2.861,2.64a.859.859,0,1,0,1.173-1.255ZM35.527,6.309H40.7v8.009L35.527,9.546ZM20.01,48.287V30.242a.806.806,0,0,1,.808-.8h8.729a.806.806,0,0,1,.808.8V48.287H20.01Zm24.138,0H32.079V30.242a2.526,2.526,0,0,0-2.532-2.516H20.818a2.526,2.526,0,0,0-2.532,2.516V48.287H6.217V19.839l18.966-17.5L37.493,13.7l4.931,4.55h0l1.724,1.591Z" transform="translate(-0.183)"/>
</svg>
