<svg xmlns="http://www.w3.org/2000/svg" viewBox="0 0 109.954 124">
  <defs>
    <style>
      .cls-1 {
        fill: #696D7D;
      }
    </style>
  </defs>
  <g id="Group_2" data-name="Group 2" transform="translate(0 0)">
    <path id="Path_1" data-name="Path 1" class="cls-1" d="M348.834,156.311l-5.265-1.916a1.921,1.921,0,0,0-1.315,3.611l5.265,1.916a1.921,1.921,0,0,0,1.315-3.611Z" transform="translate(-265.43 -116.914)"/>
    <path id="Path_2" data-name="Path 2" class="cls-1" d="M101.686,3.413A56.663,56.663,0,0,0,35.919,24.16a13.159,13.159,0,0,0,6.292,19.9L45.2,45.143A21.193,21.193,0,0,0,46.923,61.91,8.125,8.125,0,0,1,42.71,73.484a21.215,21.215,0,0,0-11,30.22,6.545,6.545,0,1,0,11.416-6.4,8.125,8.125,0,0,1,4.213-11.574,21.215,21.215,0,0,0,11-30.221,8.113,8.113,0,0,1-.812-5.876l15.665,5.7a21.205,21.205,0,0,0-7.637,28.592A8.124,8.124,0,0,1,61.344,95.5a6.545,6.545,0,0,0,4.63,12.244,21.215,21.215,0,0,0,11-30.221,8.125,8.125,0,0,1,4.212-11.573A21.279,21.279,0,0,0,88.779,61l12.51,4.553a8.115,8.115,0,0,1-4.4,3.98,21.214,21.214,0,0,0-11,30.221,8.125,8.125,0,0,1-4.213,11.574,6.545,6.545,0,0,0,4.63,12.244,21.215,21.215,0,0,0,11-30.221,8.125,8.125,0,0,1,4.212-11.574,21.188,21.188,0,0,0,12.1-11.737l7.508,2.733a13.073,13.073,0,0,0,11.567-1.263,13.059,13.059,0,0,0,6.042-9.933A56.666,56.666,0,0,0,101.686,3.413Zm-22.953.556a10.872,10.872,0,0,1-5.611,6.048,10.878,10.878,0,0,1-8.372.365A10.911,10.911,0,0,1,61.2,8.256,53.021,53.021,0,0,1,78.734,3.968ZM44.111,40.658l-.586-.213A9.316,9.316,0,0,1,39.069,26.36,52.632,52.632,0,0,1,42.9,21.515a10.944,10.944,0,0,1,1.214,19.142ZM56.16,71.826A17.356,17.356,0,0,1,45.981,82.133a11.968,11.968,0,0,0-6.206,17.048,2.7,2.7,0,0,1-4.713,2.644,17.372,17.372,0,0,1,9.007-24.747,11.968,11.968,0,0,0,6.206-17.048,17.356,17.356,0,0,1-1.462-13.572L53.9,48.312a11.949,11.949,0,0,0,1.084,9.075A17.353,17.353,0,0,1,56.16,71.826Zm23.667-9.473A11.968,11.968,0,0,0,73.622,79.4a17.372,17.372,0,0,1-9.007,24.746A2.7,2.7,0,1,1,62.7,99.092a11.967,11.967,0,0,0,6.205-17.048A17.373,17.373,0,0,1,77.915,57.3c.106-.04.213-.086.32-.131l6.472,2.356A17.385,17.385,0,0,1,79.827,62.353Zm20.333,15.834a11.968,11.968,0,0,0-6.205,17.048,17.372,17.372,0,0,1-9.007,24.747,2.7,2.7,0,1,1-1.911-5.055,11.968,11.968,0,0,0,6.205-17.048,17.372,17.372,0,0,1,9.007-24.747,11.954,11.954,0,0,0,6.663-6.255L110,68.73A17.35,17.35,0,0,1,100.159,78.187Zm30.467-9.916a9.253,9.253,0,0,1-8.19.895L48.36,42.2a14.788,14.788,0,0,0-2.695-23.573,52.567,52.567,0,0,1,11.866-8.608,14.725,14.725,0,0,0,5.906,3.97,14.794,14.794,0,0,0,5.068.9A14.746,14.746,0,0,0,74.747,13.5,14.7,14.7,0,0,0,82.4,5.153c.156-.428.289-.865.4-1.306a52.754,52.754,0,0,1,47.52,30.834,14.784,14.784,0,0,0,4.3,28.174A9.233,9.233,0,0,1,130.626,68.271Zm4.426-9.235a10.941,10.941,0,0,1-3.26-20.806A52.472,52.472,0,0,1,135.052,59.036Z" transform="translate(-28.998 0)"/>
    <path id="Path_3" data-name="Path 3" class="cls-1" d="M272,105.886a1.922,1.922,0,0,0-2.463,1.148,1.366,1.366,0,0,1-2.567-.934,1.921,1.921,0,0,0-3.611-1.314,1.366,1.366,0,1,1-2.567-.934,1.921,1.921,0,0,0-3.611-1.315,5.206,5.206,0,0,0,6.6,6.7,5.209,5.209,0,0,0,9.367-.889A1.922,1.922,0,0,0,272,105.886Z" transform="translate(-201.677 -76.746)"/>
    <path id="Path_4" data-name="Path 4" class="cls-1" d="M210.533,78.381A1.92,1.92,0,0,0,213,77.233l.314-.863a1.921,1.921,0,0,0-3.611-1.315l-.314.863A1.922,1.922,0,0,0,210.533,78.381Z" transform="translate(-165.609 -55.919)"/>
    <path id="Path_5" data-name="Path 5" class="cls-1" d="M196.928,101.022l-5.265-1.916a1.921,1.921,0,1,0-1.315,3.611l5.265,1.916a1.921,1.921,0,0,0,1.315-3.611Z" transform="translate(-150.313 -75.016)"/>
    <path id="Path_6" data-name="Path 6" class="cls-1" d="M362.439,133.671a1.92,1.92,0,0,0,2.462-1.148l.314-.863a1.921,1.921,0,1,0-3.611-1.314l-.314.863A1.921,1.921,0,0,0,362.439,133.671Z" transform="translate(-280.725 -97.819)"/>
  </g>
</svg>
