<svg xmlns="http://www.w3.org/2000/svg" viewBox="0 0 58.493 58.494">
  <defs>
    <style>
      .cls-1 {
        fill: #fff;
      }
    </style>
  </defs>
  <g id="team_1_" data-name="team (1)" transform="translate(-0.008 -0.001)">
    <path id="Path_10" data-name="Path 10" class="cls-1" d="M53.2,47.8a4.691,4.691,0,0,0,1.531-3.456V42.457a4.717,4.717,0,0,0-9.339-.943h-3.1a2.814,2.814,0,0,0-5.314,0h-3.1A4.732,4.732,0,0,0,30.2,37.835V35.719a3.769,3.769,0,0,0,2.83-3.64h.943a.943.943,0,0,0,.943-.943v-2.83H36.8V26.419H34.915v-.01a6.485,6.485,0,0,1,2.347-4.864A12.259,12.259,0,0,0,28.748.013,12.419,12.419,0,0,0,16.991,12.044a12.232,12.232,0,0,0,4.175,9.432,6.881,6.881,0,0,1,2.417,4.942H21.707v1.887h1.887v2.83a.942.942,0,0,0,.943.943h.943a3.768,3.768,0,0,0,2.83,3.64v2.116a4.733,4.733,0,0,0-3.679,3.678h-3.1a2.814,2.814,0,0,0-5.314,0h-3.1a4.717,4.717,0,0,0-9.339.943v1.887A4.691,4.691,0,0,0,5.312,47.8a8.5,8.5,0,0,0-5.3,7.865v1.887a.942.942,0,0,0,.943.943H16.046a.943.943,0,0,0,.943-.943V55.665a8.5,8.5,0,0,0-5.3-7.865,4.691,4.691,0,0,0,1.531-3.456V43.4h3a2.814,2.814,0,0,0,5.314,0h3v.943A4.691,4.691,0,0,0,26.068,47.8a8.5,8.5,0,0,0-5.3,7.865v1.887a.942.942,0,0,0,.943.943H36.8a.943.943,0,0,0,.943-.943V55.665a8.5,8.5,0,0,0-5.3-7.865,4.691,4.691,0,0,0,1.531-3.456V43.4h3a2.814,2.814,0,0,0,5.314,0h3v.943A4.691,4.691,0,0,0,46.823,47.8a8.5,8.5,0,0,0-5.3,7.865v1.887a.942.942,0,0,0,.943.943H57.557a.943.943,0,0,0,.943-.943V55.665A8.5,8.5,0,0,0,53.2,47.8ZM15.1,55.665v.943H13.216V54.722H11.329v1.887H5.668V54.722H3.782v1.887H1.895v-.943a6.6,6.6,0,1,1,13.208,0ZM5.668,44.344V42.457a2.83,2.83,0,1,1,5.661,0v1.887a2.83,2.83,0,1,1-5.661,0ZM18.876,43.4a.943.943,0,1,1,.943-.943A.943.943,0,0,1,18.876,43.4ZM22.41,20.057a10.347,10.347,0,0,1-3.532-7.98A10.508,10.508,0,0,1,28.824,1.9,10.369,10.369,0,0,1,36.03,20.114a8.373,8.373,0,0,0-3,6.294v.01H25.471A8.762,8.762,0,0,0,22.41,20.057Zm10.618,8.249v1.887H25.48V28.305Zm-5.661,3.774h3.774a1.887,1.887,0,0,1-3.774,0Zm8.491,23.586v.943H33.971V54.722H32.084v1.887H26.424V54.722H24.537v1.887H22.65v-.943a6.6,6.6,0,1,1,13.208,0ZM26.424,44.344V42.457a2.83,2.83,0,1,1,5.661,0v1.887a2.83,2.83,0,1,1-5.661,0ZM39.632,43.4a.943.943,0,1,1,.943-.943A.943.943,0,0,1,39.632,43.4Zm7.547.943V42.457a2.83,2.83,0,1,1,5.661,0v1.887a2.83,2.83,0,1,1-5.661,0Zm9.434,12.265H54.727V54.722H52.84v1.887H47.179V54.722H45.293v1.887H43.406v-.943a6.6,6.6,0,1,1,13.208,0Zm0,0" transform="translate(0 0)"/>
    <path id="Path_11" data-name="Path 11" class="cls-1" d="M232.008,192.012h3.774V193.9h-3.774Zm0,0" transform="translate(-204.641 -169.367)"/>
    <path id="Path_12" data-name="Path 12" class="cls-1" d="M197.668,59.238V61.22h1.887V59.238a4.677,4.677,0,0,0,1.654-.691L202.662,60,204,58.666l-1.452-1.453a4.69,4.69,0,0,0,.691-1.654h1.982V53.672h-1.982a4.69,4.69,0,0,0-.691-1.654L204,50.566l-1.334-1.334-1.453,1.453a4.677,4.677,0,0,0-1.654-.691V48.012h-1.887v1.982a4.68,4.68,0,0,0-1.654.691l-1.453-1.453-1.334,1.334,1.453,1.453a4.683,4.683,0,0,0-.691,1.654h-1.982v1.887h1.982a4.683,4.683,0,0,0,.691,1.654l-1.453,1.453L194.561,60l1.453-1.453A4.68,4.68,0,0,0,197.668,59.238Zm.943-7.452a2.83,2.83,0,1,1-2.83,2.83A2.834,2.834,0,0,1,198.612,51.785Zm0,0" transform="translate(-169.358 -42.349)"/>
  </g>
</svg>
